<svg xmlns="http://www.w3.org/2000/svg" width="80" height="80" viewBox="0 0 80 80">
  <g id="insta" transform="translate(-1 -1)">
    <circle id="楕円形_1" data-name="楕円形 1" cx="40" cy="40" r="40" transform="translate(1 1)" fill="#fff"/>
    <path id="パス_17" data-name="パス 17" d="M70.367,53.666c5.438,0,6.082.02,8.228.118a11.3,11.3,0,0,1,3.784.7,6.742,6.742,0,0,1,3.874,3.874,11.3,11.3,0,0,1,.7,3.784c.1,2.147.118,2.79.118,8.228s-.02,6.082-.118,8.228a11.3,11.3,0,0,1-.7,3.784,6.742,6.742,0,0,1-3.866,3.866,11.3,11.3,0,0,1-3.784.7c-2.147.1-2.79.118-8.228.118s-6.082-.02-8.228-.118a11.3,11.3,0,0,1-3.792-.692,6.742,6.742,0,0,1-3.874-3.874,11.3,11.3,0,0,1-.7-3.784c-.1-2.147-.118-2.79-.118-8.228s.02-6.082.118-8.228a11.3,11.3,0,0,1,.7-3.784,6.742,6.742,0,0,1,3.874-3.874,11.3,11.3,0,0,1,3.784-.692c2.147-.1,2.79-.118,8.228-.118m0-3.666c-5.532,0-6.224.024-8.4.122a14.978,14.978,0,0,0-4.945.945,10.42,10.42,0,0,0-5.959,5.955,14.978,14.978,0,0,0-.945,4.945c-.1,2.171-.122,2.851-.122,8.4s.024,6.224.122,8.4a14.978,14.978,0,0,0,.945,4.945,10.42,10.42,0,0,0,5.959,5.959,14.978,14.978,0,0,0,4.945.945c2.171.1,2.851.122,8.4.122s6.224-.024,8.4-.122a14.978,14.978,0,0,0,4.945-.945,10.42,10.42,0,0,0,5.959-5.959,14.978,14.978,0,0,0,.945-4.945c.1-2.171.122-2.851.122-8.4s-.024-6.224-.122-8.4a14.978,14.978,0,0,0-.945-4.945,10.42,10.42,0,0,0-5.959-5.959,14.978,14.978,0,0,0-4.945-.945c-2.171-.1-2.851-.122-8.4-.122Z" transform="translate(-29.04 -29.04)" fill="#e02828"/>
    <path id="パス_18" data-name="パス 18" d="M84.781,74.32A10.461,10.461,0,1,0,95.241,84.781,10.461,10.461,0,0,0,84.781,74.32Zm0,17.251a6.79,6.79,0,1,1,6.79-6.79A6.79,6.79,0,0,1,84.781,91.571Z" transform="translate(-43.454 -43.454)" fill="#e02828"/>
    <circle id="楕円形_2" data-name="楕円形 2" cx="2.444" cy="2.444" r="2.444" transform="translate(49.755 28.011)" fill="#e02828"/>
  </g>
</svg>
