<svg xmlns="http://www.w3.org/2000/svg" width="80" height="80" viewBox="0 0 80 80">
  <g id="twi" transform="translate(-1 -1)">
    <circle id="楕円形_3" data-name="楕円形 3" cx="40" cy="40" r="40" transform="translate(1 1)" fill="#fff"/>
    <path id="Logo" d="M88.087,67.389c.024.355.024.71.024,1.07,0,10.943-8.332,23.566-23.566,23.566h0a23.413,23.413,0,0,1-12.7-3.714,17.864,17.864,0,0,0,1.974.121,16.619,16.619,0,0,0,10.285-3.552,8.3,8.3,0,0,1-7.738-5.752,8.3,8.3,0,0,0,3.738-.141,8.291,8.291,0,0,1-6.644-8.13v-.1a8.154,8.154,0,0,0,3.758,1.037A8.291,8.291,0,0,1,54.66,60.732,23.517,23.517,0,0,0,71.73,69.387a8.287,8.287,0,0,1,14.128-7.553,16.667,16.667,0,0,0,5.248-2.018A8.324,8.324,0,0,1,87.473,64.4a16.477,16.477,0,0,0,4.755-1.3A16.881,16.881,0,0,1,88.087,67.389Z" transform="translate(-30.324 -34.705)" fill="#e02828"/>
  </g>
</svg>
